<?xml version="1.0" standalone="no"?>
<!DOCTYPE svg PUBLIC "-//W3C//DTD SVG 20010904//EN"
 "http://www.w3.org/TR/2001/REC-SVG-20010904/DTD/svg10.dtd">
<svg version="1.0" xmlns="http://www.w3.org/2000/svg"
 width="500.000000pt" height="500.000000pt" viewBox="0 0 500.000000 500.000000"
 preserveAspectRatio="xMidYMid meet">

<g transform="translate(0.000000,500.000000) scale(0.100000,-0.100000)"
fill="#000000" stroke="none">
<path d="M2295 4735 c-225 -29 -498 -112 -703 -213 -257 -128 -448 -272 -668
-503 -247 -259 -452 -640 -528 -985 -15 -65 -31 -135 -36 -154 -30 -119 -37
-549 -11 -705 87 -519 295 -931 646 -1280 165 -165 395 -331 590 -427 169 -83
481 -182 655 -207 106 -16 683 -6 770 13 324 70 572 173 828 343 157 105 254
186 386 324 303 317 524 759 592 1185 32 205 29 564 -7 779 -16 96 -79 312
-121 419 -266 672 -846 1182 -1543 1357 -202 51 -267 59 -510 64 -163 3 -262
0 -340 -10z m560 -41 c166 -21 251 -39 385 -81 126 -39 280 -101 280 -113 0
-4 -7 -13 -15 -20 -12 -10 -22 -9 -52 5 -20 10 -94 37 -163 61 -392 133 -835
149 -1235 45 -520 -135 -976 -465 -1271 -916 -231 -355 -348 -752 -347 -1185
0 -500 157 -942 482 -1355 71 -90 254 -270 357 -351 98 -77 289 -193 404 -246
183 -85 437 -160 640 -189 122 -18 451 -15 582 4 778 117 1432 637 1716 1367
49 126 105 340 123 470 21 144 18 508 -5 644 -50 301 -166 602 -329 849 -144
220 -345 429 -559 580 -86 60 -103 82 -74 93 45 17 401 -293 551 -479 290
-360 464 -831 482 -1302 16 -437 -95 -865 -322 -1240 -191 -314 -496 -607
-820 -788 -217 -121 -482 -209 -770 -258 -97 -16 -406 -22 -520 -10 -658 72
-1231 406 -1607 938 -381 538 -499 1253 -312 1895 104 358 290 673 554 939
268 270 553 443 927 563 268 86 631 118 918 80z m-2 -95 c131 -12 341 -63 491
-120 61 -23 114 -45 119 -49 4 -3 -6 -26 -21 -51 -16 -24 -44 -68 -62 -97 -23
-37 -38 -52 -49 -49 -9 3 -52 19 -96 35 -214 79 -377 107 -635 107 -206 0
-308 -12 -480 -57 -588 -154 -1061 -581 -1285 -1158 -33 -86 -70 -223 -96
-355 -18 -93 -27 -316 -18 -447 20 -287 119 -598 266 -836 295 -479 787 -807
1333 -887 153 -23 408 -23 560 0 320 48 624 179 885 383 95 75 267 250 339
346 261 348 387 752 373 1193 -16 493 -196 914 -540 1261 -89 91 -276 244
-314 259 -7 3 -13 10 -13 15 0 13 39 68 49 68 13 0 157 -95 223 -147 75 -60
215 -205 281 -290 173 -225 316 -556 366 -847 47 -272 50 -474 11 -726 -25
-164 -34 -204 -76 -334 -84 -260 -208 -482 -379 -679 -42 -48 -72 -87 -66 -87
5 0 54 44 108 98 270 266 446 608 519 1008 25 137 30 460 10 614 -53 398 -224
766 -487 1044 -134 141 -301 267 -442 331 -31 15 -57 31 -57 37 0 18 54 98 66
98 23 0 222 -158 328 -260 264 -255 441 -539 552 -890 125 -395 126 -856 2
-1254 -82 -264 -210 -503 -388 -721 -127 -155 -360 -359 -532 -464 -209 -127
-484 -231 -728 -275 -206 -38 -547 -38 -750 0 -270 49 -594 182 -815 333 -58
40 -181 139 -279 225 -260 230 -493 640 -586 1031 -46 193 -55 274 -55 495 0
221 9 302 56 495 160 667 641 1223 1273 1470 341 133 639 172 1039 134z m794
-165 c57 -36 103 -67 103 -70 0 -2 -42 -71 -94 -153 l-94 -150 81 -55 c112
-75 250 -199 340 -305 208 -242 344 -520 414 -846 26 -121 28 -146 27 -355 0
-207 -2 -235 -28 -355 -122 -576 -463 -1022 -981 -1287 -487 -249 -1090 -256
-1598 -19 -700 327 -1122 1064 -1048 1831 24 244 76 428 184 645 144 292 356
531 637 719 106 71 300 166 421 207 281 94 639 117 937 60 90 -17 298 -81 373
-115 12 -5 37 27 115 153 54 88 101 160 103 161 3 0 51 -30 108 -66z"/>
<path d="M1617 4333 c-4 -3 -7 -17 -7 -30 0 -16 -8 -27 -24 -33 -37 -14 -39
-26 -6 -40 24 -10 30 -19 30 -41 0 -31 17 -38 39 -16 6 6 26 12 44 12 24 0 31
4 28 15 -7 23 -5 63 3 83 7 14 3 17 -25 17 -19 0 -42 8 -54 20 -12 11 -25 17
-28 13z"/>
<path d="M1395 4179 c-5 -20 -16 -34 -33 -40 l-27 -11 28 -22 c15 -12 27 -31
27 -43 0 -32 18 -38 43 -15 15 14 30 19 50 15 30 -6 31 -5 17 33 -7 19 -7 30
1 40 18 22 3 45 -24 39 -16 -4 -29 0 -41 14 -26 28 -33 26 -41 -10z"/>
<path d="M1226 4037 c-5 -26 -13 -37 -31 -41 -32 -8 -32 -21 0 -42 15 -10 25
-26 25 -40 0 -32 14 -37 36 -13 14 16 26 19 51 14 36 -6 41 2 21 35 -10 16
-10 24 0 40 19 31 15 40 -20 40 -18 0 -41 9 -54 21 l-22 20 -6 -34z"/>
<path d="M1034 3881 c-4 -18 -16 -33 -33 -41 l-26 -12 28 -22 c15 -12 27 -31
27 -43 0 -31 14 -36 35 -13 14 16 26 19 53 14 33 -6 34 -6 26 17 -8 24 -8 37
-2 74 2 16 -3 21 -29 23 -17 2 -37 10 -43 18 -19 22 -30 17 -36 -15z"/>
<path d="M915 3710 c-4 -19 -16 -36 -31 -42 -30 -14 -30 -23 1 -44 14 -9 25
-26 25 -38 0 -33 11 -38 33 -19 10 10 33 18 51 18 23 0 30 4 27 15 -7 24 -5
63 4 83 7 16 4 18 -23 16 -21 -3 -38 3 -55 19 l-25 24 -7 -32z"/>
<path d="M796 3535 c-4 -14 -18 -31 -31 -37 -31 -14 -31 -22 0 -36 17 -8 25
-20 25 -36 0 -33 17 -42 40 -21 13 12 27 15 49 10 33 -7 37 1 22 40 -5 12 -3
30 6 48 13 27 13 27 -21 27 -18 0 -39 7 -46 15 -19 22 -37 18 -44 -10z"/>
<path d="M715 3328 c-4 -13 -19 -33 -34 -45 l-26 -21 28 -13 c20 -9 27 -19 27
-39 0 -36 10 -43 32 -23 12 11 32 16 55 15 33 -3 35 -1 28 20 -9 29 -9 47 1
77 7 22 5 23 -24 19 -23 -3 -37 1 -49 14 -21 24 -30 23 -38 -4z"/>
<path d="M635 3127 c-5 -26 -13 -37 -31 -41 -31 -8 -31 -30 1 -44 16 -8 25
-20 25 -35 0 -35 11 -40 36 -16 18 17 30 20 55 15 29 -5 31 -4 24 17 -9 28 -9
46 1 76 7 22 5 23 -21 17 -22 -6 -33 -2 -56 20 l-28 26 -6 -35z"/>
<path d="M590 2925 c0 -17 -8 -29 -25 -37 -30 -14 -31 -24 -5 -40 11 -7 20
-20 20 -28 0 -9 6 -24 13 -34 12 -16 14 -16 32 3 14 17 26 20 52 15 l33 -6
-11 32 c-9 23 -9 38 0 56 15 34 15 34 -23 34 -18 0 -39 7 -46 15 -19 23 -40
18 -40 -10z"/>
<path d="M560 2715 c0 -18 -10 -31 -31 -44 l-31 -19 25 -17 c14 -9 29 -30 32
-46 7 -32 17 -36 35 -14 7 8 28 15 46 15 35 0 44 16 22 38 -10 10 -8 19 5 41
19 33 11 45 -25 36 -17 -4 -30 0 -42 14 -25 28 -36 26 -36 -4z"/>
<path d="M560 2495 c0 -17 -9 -29 -31 -41 l-32 -16 27 -21 c15 -12 30 -34 34
-50 7 -27 8 -27 32 -10 14 10 38 16 58 14 l34 -3 -17 30 c-17 27 -17 31 -1 53
24 35 20 42 -20 37 -27 -3 -38 0 -45 14 -14 27 -39 22 -39 -7z"/>
<path d="M590 2265 c0 -15 -10 -31 -26 -42 l-26 -17 21 -17 c11 -9 21 -23 21
-31 0 -8 6 -22 13 -32 12 -16 14 -16 31 3 13 15 26 18 52 14 l34 -6 -11 32
c-9 24 -9 39 0 57 15 34 15 34 -23 34 -18 0 -39 7 -46 15 -19 23 -40 18 -40
-10z"/>
<path d="M634 2042 c-4 -17 -16 -35 -30 -43 -30 -16 -30 -23 1 -43 16 -10 25
-26 25 -41 0 -29 21 -33 41 -9 9 11 23 14 46 11 37 -6 43 6 19 38 -12 17 -12
22 0 39 21 30 17 36 -21 36 -19 0 -35 4 -35 10 0 5 -9 14 -20 20 -18 10 -21 7
-26 -18z"/>
<path d="M715 1789 c-4 -18 -16 -35 -31 -41 -31 -14 -30 -26 1 -40 15 -7 25
-20 25 -32 0 -38 14 -49 35 -26 11 13 31 20 53 20 29 0 33 3 27 18 -10 21 -9
40 1 71 7 23 5 24 -24 18 -25 -5 -33 -2 -46 18 -22 33 -33 31 -41 -6z"/>
<path d="M805 1587 c-8 -19 -24 -38 -35 -42 -27 -8 -25 -19 5 -35 15 -8 25
-22 25 -36 0 -31 17 -39 40 -19 14 13 28 16 51 11 30 -6 31 -5 24 22 -8 30 -8
36 1 73 5 24 4 26 -21 22 -18 -4 -33 1 -50 17 l-25 23 -15 -36z"/>
<path d="M937 1433 c-4 -3 -7 -17 -7 -30 0 -17 -9 -28 -29 -36 -32 -14 -30
-27 7 -46 15 -8 22 -21 22 -41 0 -35 10 -38 35 -9 13 13 29 19 50 17 22 -2 29
1 26 12 -7 24 -5 63 4 84 7 17 5 18 -21 13 -22 -4 -35 0 -55 19 -14 13 -28 21
-32 17z"/>
<path d="M1060 1235 c0 -17 -9 -29 -30 -40 -35 -18 -38 -31 -10 -40 10 -3 25
-22 32 -41 14 -38 20 -41 39 -18 9 11 23 14 47 10 32 -5 34 -3 27 17 -10 29
-10 58 -1 80 7 14 3 17 -28 17 -25 0 -38 6 -46 20 -15 28 -30 25 -30 -5z"/>
<path d="M1223 1049 c-7 -17 -21 -33 -32 -36 -28 -7 -26 -19 4 -39 14 -9 25
-26 25 -38 0 -33 10 -38 39 -17 18 13 36 17 55 14 26 -5 28 -4 21 13 -15 36
-17 62 -6 68 24 15 11 36 -23 36 -18 0 -39 7 -46 15 -18 22 -24 19 -37 -16z"/>
<path d="M1395 927 c-8 -19 -24 -38 -35 -42 -27 -9 -25 -19 5 -33 17 -8 25
-20 25 -36 0 -33 17 -42 40 -21 14 12 27 15 51 10 31 -7 32 -7 24 21 -9 34 -9
41 0 72 6 19 4 22 -21 22 -15 0 -38 10 -51 22 l-23 21 -15 -36z"/>
<path d="M1610 800 c0 -18 -5 -30 -13 -30 -7 0 -22 -6 -32 -14 -18 -13 -17
-14 13 -30 25 -13 32 -23 32 -46 0 -35 10 -38 36 -9 14 16 25 19 53 14 30 -6
33 -4 26 12 -11 23 -11 63 -1 85 7 16 4 17 -24 12 -25 -5 -34 -2 -46 15 -22
31 -44 27 -44 -9z"/>
<path d="M2397 3303 c-3 -5 -57 -99 -121 -211 -63 -111 -123 -214 -132 -228
-21 -32 -11 -42 46 -46 l45 -3 3 -172 2 -173 170 0 170 0 0 175 0 175 50 0
c31 0 50 4 50 11 0 14 -258 467 -270 474 -5 3 -11 2 -13 -2z"/>
<path d="M1535 3010 c46 -12 315 -12 315 0 0 6 -63 10 -172 9 -102 -1 -161 -5
-143 -9z"/>
<path d="M1510 2869 l0 -120 33 22 c17 13 74 55 126 94 52 38 109 79 128 89
23 14 30 22 21 28 -7 4 -79 8 -160 8 l-148 0 0 -121z"/>
<path d="M2817 2934 c-4 -4 -7 -110 -7 -236 l0 -228 175 0 175 0 0 106 0 106
100 -4 c88 -3 102 -6 122 -26 31 -30 33 -129 4 -161 l-19 -21 190 0 c165 0
192 2 197 16 3 9 6 48 6 88 0 147 -69 264 -194 329 l-61 32 -340 3 c-187 2
-344 0 -348 -4z"/>
<path d="M1685 2819 c-82 -61 -156 -114 -164 -118 -7 -4 -11 -16 -10 -25 3
-13 43 11 172 105 92 67 167 128 167 135 0 8 -3 14 -7 14 -5 0 -75 -50 -158
-111z"/>
<path d="M1675 2721 l-160 -117 -3 -67 -3 -67 171 0 170 0 0 185 c0 102 -3
185 -7 184 -5 0 -80 -53 -168 -118z"/>
<path d="M1533 2395 c-10 -27 4 -105 22 -125 13 -14 31 -20 60 -20 59 0 75 21
75 98 0 55 -2 62 -20 62 -17 0 -20 -7 -20 -44 0 -60 -8 -76 -36 -76 -23 0 -24
3 -24 60 0 58 -1 60 -25 60 -14 0 -28 -7 -32 -15z"/>
<path d="M1790 2330 c0 -79 0 -80 25 -80 20 0 25 5 25 25 0 21 5 25 28 25 50
0 76 46 52 91 -9 15 -22 19 -70 19 l-60 0 0 -80z m88 28 c-7 -19 -38 -22 -38
-4 0 10 9 16 21 16 12 0 19 -5 17 -12z"/>
<path d="M2150 2330 c0 -79 0 -80 25 -80 20 0 25 5 25 25 0 21 5 25 28 25 35
0 62 27 62 61 0 38 -19 49 -82 49 l-58 0 0 -80z m90 25 c0 -8 -9 -15 -20 -15
-11 0 -20 7 -20 15 0 8 9 15 20 15 11 0 20 -7 20 -15z"/>
<path d="M2380 2330 c0 -79 0 -80 25 -80 21 0 25 5 25 30 0 17 4 30 10 30 5 0
16 -13 25 -30 11 -22 23 -30 41 -30 21 0 25 3 19 18 -15 34 -17 60 -6 66 15 9
14 49 -1 64 -7 7 -39 12 -75 12 l-63 0 0 -80z m84 44 c25 -9 19 -24 -9 -24
-24 0 -32 10 -18 23 8 8 8 8 27 1z"/>
<path d="M2635 2390 c-27 -29 -24 -99 5 -122 28 -23 91 -23 119 0 33 26 38 81
11 115 -18 23 -29 27 -69 27 -35 0 -53 -5 -66 -20z m90 -26 c10 -10 14 -25 11
-38 -3 -12 -6 -25 -6 -29 0 -5 -12 -7 -27 -5 -24 3 -29 8 -31 37 -5 47 23 65
53 35z"/>
<path d="M2947 2404 c-4 -4 -7 -31 -7 -61 0 -55 -7 -62 -40 -41 -15 10 -22 10
-32 0 -20 -20 18 -52 63 -52 52 0 71 29 67 102 -3 45 -6 53 -23 56 -12 2 -24
0 -28 -4z"/>
<path d="M3090 2330 l0 -80 71 0 c62 0 70 2 67 18 -2 12 -15 18 -46 20 -51 4
-53 25 -4 30 46 5 43 32 -3 32 -50 0 -44 18 7 22 31 2 44 8 46 21 3 15 -5 17
-67 17 l-71 0 0 -80z"/>
<path d="M3330 2390 c-29 -29 -27 -90 3 -118 31 -29 89 -30 118 -1 21 21 22
40 2 46 -6 2 -18 -3 -27 -12 -26 -27 -60 -15 -64 21 -2 18 3 36 11 43 15 12
47 5 47 -10 0 -5 11 -9 25 -9 29 0 31 7 9 38 -21 30 -95 31 -124 2z"/>
<path d="M3545 2400 c-10 -16 4 -30 31 -30 23 0 24 -3 24 -61 0 -57 1 -60 23
-57 19 3 22 10 25 61 3 53 5 57 27 57 18 0 25 5 25 20 0 18 -7 20 -74 20 -41
0 -78 -4 -81 -10z"/>
<path d="M1525 2153 c17 -93 110 -207 202 -249 191 -86 463 -85 634 2 94 47
181 158 203 257 l6 27 -180 0 -180 0 -16 -25 c-23 -36 -92 -65 -152 -65 -66 0
-110 18 -144 59 l-27 31 -176 0 -177 0 7 -37z"/>
<path d="M2810 2095 l0 -95 -55 0 c-30 0 -55 -2 -55 -5 0 -4 74 -133 178 -310
19 -33 49 -84 65 -113 19 -35 33 -50 39 -44 5 5 69 113 142 238 l132 229 -48
3 -48 3 0 95 0 94 -175 0 -175 0 0 -95z"/>
</g>
</svg>
